# xmcd
#
# Track frame offsets:
#	150
#	15553
#	32302
#	45644
#	63116
#	77700
#	93369
#	106348
#	123372
#	136592
#	156306
#	169852
#
# Disc length: 2416 seconds
#
# Revision: 0
# Processed by: cddbd v1.5.2PL0 Copyright (c) Steve Scherf et al.
# Submitted via: EasyCDDAExtractor 16.0.6.1
#
DISCID=86096e0c
DTITLE=Συλλογικός δίσκος - Τριάντα χρόνια χελιδόνια 1960-1990 Λ. Παπαδόπουλος 
DTITLE=3
DYEAR=2009
DGENRE=Ποικίλη
TTITLE0=Μητσιάς Μανώλης - Επειδή σ' αγαπώ [1982]
TTITLE1=Φαραντούρη Μαρία - Σαν τον μετανάστη [1982]
TTITLE2=Φαραντούρη Μαρία - Οι μέρες μας [1982]
TTITLE3=Φαραντούρη Μαρία - Ένα τραγούδι αλλιώτικο [1998]
TTITLE4=Κανελλίδου Αλέκα-Χατζηνάσιος Γιώργος - Στις Πυραμίδες [1988]
TTITLE5=Κόκοτας Σταμάτης - Γιε μου, γιε μου [1977]
TTITLE6=Διονυσίου Στράτος - Με σκότωσε γιατί την αγαπούσα [1985]
TTITLE7=Διονυσίου Στράτος - Ο Σαλονικιός [1985]
TTITLE8=Βελής Λεωνίδας - Με το στόμα γεμάτο φιλιά [1987]
TTITLE9=Πουλόπουλος Γιάννης - Το άγαλμα [1989]
TTITLE10=Πουλόπουλος Γιάννης - Όλα δικά σου [1989]
TTITLE11=Πουλόπουλος Γιάννης - Ποια νύχτα σ' έκλεψε [1989]
EXTD=
EXTT0=
EXTT1=
EXTT2=
EXTT3=
EXTT4=
EXTT5=
EXTT6=
EXTT7=
EXTT8=
EXTT9=
EXTT10=
EXTT11=
PLAYORDER=
